<svg xmlns="http://www.w3.org/2000/svg" viewBox="0 0 897.75 897.75"><defs><style>.cls-1{isolation:isolate;}.cls-2{fill:#a5bfdb;}.cls-3{fill:#a48465;}.cls-4{fill:#c2a49d;mix-blend-mode:multiply;}.cls-5{fill:#cdad8a;}.cls-6{fill:#e0c5a4;}.cls-7{fill:#8f6e4f;}.cls-8{fill:#bb9673;}.cls-9{fill:#7f6b59;}.cls-10{fill:#f0cfa8;}.cls-11{fill:#e3c5a1;}.cls-12{fill:#ffcf33;}.cls-13{fill:#fff;}</style></defs><g class="cls-1"><g id="Layer_2" data-name="Layer 2"><g id="Layer_1-2" data-name="Layer 1"><path class="cls-2" d="M19.26,194.7C87.88,78.7,587.06-49.37,703.05,19.26s244.07,567.8,175.44,683.79S310.7,947.12,194.7,878.49-49.37,310.7,19.26,194.7"/><polygon class="cls-3" points="448.07 261.78 448.07 491.44 357.42 543.79 326.6 561.56 211 628.32 211 398.65 326.6 331.89 357.42 314.12 448.07 261.78"/><polygon class="cls-4" points="448.07 765.2 584.74 786.22 822.62 625.61 712.64 562.89 686.8 557.42 448.07 765.2"/><polygon class="cls-5" points="329.53 467.09 298.72 449.29 211 398.66 211 628.32 298.72 678.96 329.53 696.76 448.07 765.2 448.07 535.53 329.53 467.09"/><polygon class="cls-5" points="566.61 330.21 535.79 312.41 448.07 261.78 448.07 491.44 535.79 542.08 566.61 559.88 685.14 628.32 685.14 398.65 566.61 330.21"/><polygon class="cls-3" points="685.14 398.66 685.14 628.32 594.49 680.67 563.67 698.44 448.07 765.2 448.07 535.53 563.67 468.77 594.49 451 685.14 398.66"/><polygon class="cls-6" points="329.53 467.09 329.53 696.76 298.72 678.96 298.72 449.29 329.53 467.09"/><path class="cls-7" d="M681.84,406.69,452.38,539.17c-.59.34-1.07.14-1.07-.45a2.23,2.23,0,0,1,1.07-1.69L681.84,404.55c.59-.34,1.07-.14,1.07.45A2.23,2.23,0,0,1,681.84,406.69Z"/><polygon class="cls-8" points="594.49 451 594.49 680.67 563.67 698.44 563.67 468.77 594.49 451"/><path class="cls-9" d="M656.66,446.73a9.23,9.23,0,0,0,0-1.74,11.87,11.87,0,0,0-1.52,2.49,1.67,1.67,0,0,0,0,.18,18.05,18.05,0,0,0-8.39,13l.07,0a3,3,0,0,1,1.26-1.81c.59-.34,1.09-.18,1.27.35l.15-.09a3,3,0,0,1,1.27-1.81c.58-.34,1.08-.18,1.26.35l.15-.09a3,3,0,0,1,1.26-1.81c.6-.34,1.1-.18,1.27.35l.15-.08a3.14,3.14,0,0,1,.58-1.19V465.2a1.88,1.88,0,0,1-.83,1.47c-.46.27-.83,0-.83-.51V464.5c0-.45-.31-.64-.69-.42a1.54,1.54,0,0,0-.68,1.21V467c0,1.44,1,2.05,2.2,1.35a5,5,0,0,0,2.2-3.89V454.05a.69.69,0,0,1,.58.51l.15-.08a3.07,3.07,0,0,1,1.27-1.82c.59-.33,1.09-.17,1.26.36l.15-.09a3,3,0,0,1,1.27-1.81c.59-.34,1.09-.18,1.27.35l.14-.09a3,3,0,0,1,1.27-1.81c.59-.34,1.09-.18,1.26.35l.08,0S664.8,442.39,656.66,446.73Z"/><path class="cls-9" d="M651.68,449.2c.38,0,.86-.49,1.17-1.42a7.41,7.41,0,0,0,.13-2.5,12.33,12.33,0,0,0-1.52,2.49C651.15,448.71,651.3,449.2,651.68,449.2Z"/><path class="cls-9" d="M654.72,445.82c.38,0,.85-.49,1.16-1.42a7.52,7.52,0,0,0,.14-2.5,11.87,11.87,0,0,0-1.52,2.49C654.19,445.33,654.33,445.82,654.72,445.82Z"/><path class="cls-9" d="M662.09,440.25c-.31.94-.16,1.44.22,1.44s.86-.49,1.17-1.43a7.41,7.41,0,0,0,.13-2.5A12.33,12.33,0,0,0,662.09,440.25Z"/><path class="cls-9" d="M662.57,443.88c-.31.94-.16,1.43.22,1.43s.85-.48,1.16-1.42a7.25,7.25,0,0,0,.14-2.5A11.87,11.87,0,0,0,662.57,443.88Z"/><path class="cls-9" d="M658.1,441.85c.38,0,.86-.49,1.17-1.43a7.41,7.41,0,0,0,.13-2.5,12.33,12.33,0,0,0-1.52,2.49C657.57,441.35,657.72,441.85,658.1,441.85Z"/><path class="cls-9" d="M658.75,443.56c-.31.94-.16,1.43.22,1.43s.86-.48,1.17-1.42a7.41,7.41,0,0,0,.13-2.5A11.87,11.87,0,0,0,658.75,443.56Z"/><path class="cls-9" d="M661.44,438.29c.39,0,.86-.49,1.17-1.43a7.41,7.41,0,0,0,.13-2.5,12.5,12.5,0,0,0-1.52,2.5C660.91,437.8,661.06,438.29,661.44,438.29Z"/><path class="cls-9" d="M671,462.6l-29.86,17.23c-.28.16-.5,0-.5-.3V443.92a1.1,1.1,0,0,1,.5-.87L671,425.81c.27-.16.49,0,.49.3v35.61A1.12,1.12,0,0,1,671,462.6Zm-29.37,15.77L670.5,461.7V427.27l-28.87,16.67Z"/><path class="cls-9" d="M634.84,446.61,605,463.85a1.1,1.1,0,0,0-.5.88v35.6c0,.33.22.46.5.31l29.86-17.24a1.12,1.12,0,0,0,.49-.88v-35.6C635.33,446.59,635.11,446.46,634.84,446.61Zm-.5,35.9-28.87,16.66V464.75l28.87-16.67Z"/><path class="cls-9" d="M619.05,472.83V483.2l-3.87,3.85,3.87-2.24,1.47-.85,4-2.3-4,.69V472a16.58,16.58,0,0,0,5.11-5.7,16.92,16.92,0,0,0,2.32-8l-10.18,5.88-.9,2.13,1.69-.17L615.67,472l.49-3.58-1-.23.57-2.83-3.89,2.25C611.86,472.5,615,474.72,619.05,472.83Z"/><polygon class="cls-9" points="619.91 503.5 614.75 510.03 619.91 510.6 625.07 504.07 619.91 503.5"/><polygon class="cls-9" points="614.63 516.5 619.78 517.07 619.78 510.92 614.63 510.34 614.63 516.5"/><polygon class="cls-9" points="625.22 504.22 620.07 510.75 620.07 516.9 625.22 510.38 625.22 504.22"/><path class="cls-9" d="M614,518.82c-.25-.18-.66,0-.94.46a1.4,1.4,0,0,0-.29.8.79.79,0,0,0,.26.75l2.45,1.71c.15.1.17.38,0,.66a.74.74,0,0,1-.31.34.26.26,0,0,1-.3,0l-2.41-1.67a.63.63,0,0,1-.23-.55v-2.41c0-.36,0-.7,0-1.12v-3.63c0-.79-.54-1.13-1.21-.74a2.74,2.74,0,0,0-1.21,2.14v6.7a4.06,4.06,0,0,0,.92,2.81l2.66,2.8a2.3,2.3,0,0,1,.53,1.63v4.28l3.83-2.21v-7.38a4.38,4.38,0,0,0-1.43-3.63Z"/><path class="cls-9" d="M628.75,503.23a2.71,2.71,0,0,0-1.21,2.14v7.16a1.76,1.76,0,0,1-.22.8l-2.42,4.47a.85.85,0,0,1-.3.32.27.27,0,0,1-.31,0c-.14-.12-.12-.43,0-.7l2.45-4.53a1.94,1.94,0,0,0,.27-1.07c0-.26-.09-.38-.3-.45s-.69.16-.94.62l-2.34,4.47a11.67,11.67,0,0,0-1.44,5.29v7.38l3.83-2.21v-4.29a5.57,5.57,0,0,1,.53-2.23l2.66-5.88a9.53,9.53,0,0,0,.92-3.87V504C630,503.18,629.42,502.84,628.75,503.23Z"/><path class="cls-9" d="M634.84,526.71,605,544c-.28.16-.5,0-.5-.31V508a1.1,1.1,0,0,1,.5-.88l29.86-17.24c.27-.15.49,0,.49.31v35.6A1.12,1.12,0,0,1,634.84,526.71Zm-29.37,15.77,28.87-16.66V491.39l-28.87,16.67Z"/><polygon class="cls-9" points="662.63 500.47 662.63 489.19 664.88 487.89 660.69 481.9 656.49 492.74 658.75 491.43 658.75 502.71 653.24 505.88 653.24 494.61 655.5 493.31 651.3 487.32 647.11 498.15 649.37 496.85 649.37 508.12 646.33 509.87 646.33 515.17 665.8 503.93 665.8 498.63 662.63 500.47"/><path class="cls-9" d="M671,506.83l-29.86,17.24c-.28.16-.5,0-.5-.3V488.16a1.1,1.1,0,0,1,.5-.87L671,470.05c.27-.16.49,0,.49.3V506A1.09,1.09,0,0,1,671,506.83Zm-29.37,15.78,28.87-16.67V471.51l-28.87,16.67Z"/><polygon class="cls-10" points="211 398.65 299.58 449.81 330.39 467.58 330.42 467.58 448.07 535.53 315.33 542.07 78.24 405.19 211 398.65"/><polygon class="cls-10" points="448.07 261.78 523.09 156.38 760.17 293.26 685.14 398.65 448.07 261.78"/><polygon class="cls-10" points="448.07 261.78 339.52 156.38 102.44 293.26 211 398.65 448.07 261.78"/><polygon class="cls-10" points="685.14 398.65 596.57 449.81 565.75 467.58 565.73 467.58 448.07 535.53 561.97 555.49 799.06 418.61 685.14 398.65"/><polygon class="cls-11" points="448.07 491.44 485.9 513.28 448.07 535.53 410.25 513.28 448.07 491.44"/><path class="cls-12" d="M406.25,487.3a1.52,1.52,0,0,1-1.12-.5,1.66,1.66,0,0,1-.42-.92c-.23-.9-.47-2.05-.77-3.5-3.89-18.54-15.72-75-100.72-115a1.49,1.49,0,0,1,.11-2.75c36.52-13.92,64.45-37.31,83-69.54,14.69-25.51,18-47.61,18.32-50a1.43,1.43,0,0,1,0-.22,1.54,1.54,0,0,1,1.2-1.35,1.73,1.73,0,0,1,.32,0,1.45,1.45,0,0,1,1.34.85,1.89,1.89,0,0,1,.17.66,1.82,1.82,0,0,1,0,.32c1.49,9.72,15.88,86.79,101.35,119.35a1.49,1.49,0,0,1,.11,2.75c-56.51,26.59-90.41,65.3-100.75,115.06-.28,1.37-.51,2.47-.72,3.34a1.5,1.5,0,0,1-1,1.38A1.42,1.42,0,0,1,406.25,487.3Z"/><path class="cls-13" d="M406.2,245a.8.8,0,0,1,.05.34c.05,0,0,.05,0,.05,1.14,7.69,14.46,87.25,102.33,120.73-92.81,43.65-99.39,108.05-102.33,119.56v.17a.23.23,0,0,1-.05-.17c-3-11.51-9.53-75.91-102.34-119.56,88-33.53,101.29-113.37,102.29-120.78a.8.8,0,0,0,.05-.34m0-3a2.7,2.7,0,0,0-.63.07,3,3,0,0,0-2.36,2.65,1.43,1.43,0,0,0,0,.22c-.32,2.4-3.58,24.23-18.13,49.5-18.39,31.91-46.06,55.09-82.25,68.87a3,3,0,0,0-.2,5.52c84.32,39.66,96,95.55,99.88,113.91.3,1.42.54,2.56.77,3.48a3.22,3.22,0,0,0,.77,1.63,3,3,0,0,0,2.24,1,3.07,3.07,0,0,0,1.07-.2,3,3,0,0,0,1.92-2.56c.21-.87.43-1.94.7-3.25,10.24-49.28,43.86-87.64,99.91-114a3,3,0,0,0-.2-5.52c-36.13-13.76-63.78-36.88-82.16-68.72C413.9,271,410,250.06,409.27,245.25a3.87,3.87,0,0,0,0-.49,3.45,3.45,0,0,0-.29-1A3,3,0,0,0,406.2,242Z"/><path class="cls-12" d="M591.62,330.79a1.48,1.48,0,0,1-1.12-.5,1.65,1.65,0,0,1-.39-.83c-.14-.56-.29-1.29-.48-2.18-2.4-11.46-9.72-46.35-62.33-71.1a1.5,1.5,0,0,1-.86-1.41,1.53,1.53,0,0,1,1-1.35c54.93-20.92,62.37-71.76,62.66-73.92l0-.15a1.51,1.51,0,0,1,1.19-1.31,1.63,1.63,0,0,1,.31,0,1.47,1.47,0,0,1,1.36.88,1.81,1.81,0,0,1,.15.56,1.94,1.94,0,0,1,0,.24c1,6.18,9.93,53.64,62.67,73.73a1.5,1.5,0,0,1,.11,2.76c-35,16.46-56,40.4-62.35,71.17-.17.82-.31,1.5-.44,2a1.51,1.51,0,0,1-1,1.31A1.6,1.6,0,0,1,591.62,330.79Z"/><path class="cls-13" d="M591.59,179.5a.46.46,0,0,1,0,.2s0,0,0,0c.71,4.78,9,54.27,63.65,75.09C597.55,282,593.45,322,591.62,329.19v.1a.12.12,0,0,1,0-.1c-1.86-7.16-5.92-47.21-63.65-74.36,54.75-20.86,63-70.52,63.62-75.13a.46.46,0,0,0,0-.2m0-3a3.36,3.36,0,0,0-.63.06,3,3,0,0,0-2.35,2.6.59.59,0,0,0,0,.14c-.2,1.48-2.2,14.85-11.14,30.38-11.3,19.62-28.32,33.86-50.58,42.34a3,3,0,0,0-.2,5.52c51.93,24.43,59.13,58.77,61.49,70,.18.87.33,1.58.48,2.16a3.12,3.12,0,0,0,.74,1.54,3,3,0,0,0,2.24,1,3.06,3.06,0,0,0,1.07-.19,3,3,0,0,0,1.91-2.47c.13-.54.27-1.19.43-2,2.35-11.29,9.48-45.63,61.52-70.11a3,3,0,0,0-.21-5.52c-51.72-19.7-60.71-66.07-61.71-72.48l0-.29a3.64,3.64,0,0,0-.27-1,3,3,0,0,0-2.74-1.77Z"/><path class="cls-12" d="M450.34,208.53a1.42,1.42,0,0,1-1.06-.46,1.48,1.48,0,0,1-.37-.7h0c-.1-.35-.2-.83-.32-1.42-1.45-6.9-5.85-27.91-37.59-42.84a1.5,1.5,0,0,1-.86-1.41,1.53,1.53,0,0,1,1-1.35c33.09-12.6,37.57-43.19,37.74-44.49,0,0,0-.06,0-.1a1.51,1.51,0,0,1,1.17-1.29l.32,0a1.48,1.48,0,0,1,1.36.87,1.92,1.92,0,0,1,.15.52s0,.11,0,.17c.6,3.86,6.07,32.29,37.75,44.35a1.5,1.5,0,0,1,.1,2.76c-31.8,15-36.16,36-37.6,42.88-.11.54-.2,1-.29,1.33a1.53,1.53,0,0,1-.91,1.1A1.71,1.71,0,0,1,450.34,208.53Z"/><path class="cls-13" d="M450.36,115.93a.32.32,0,0,1,0,.13s0,0,0,0c.43,2.91,5.47,33,38.71,45.68C454,178.27,451.49,202.64,450.38,207v.06a.07.07,0,0,1,0-.06c-1.13-4.35-3.61-28.72-38.72-45.23,33.3-12.69,38.32-42.89,38.7-45.7a.27.27,0,0,0,0-.13m0-3a3.58,3.58,0,0,0-.64.07,3,3,0,0,0-2.34,2.56s0,.07,0,.1c-.17,1.26-4.53,31-36.79,43.29a3,3,0,0,0-.21,5.52c31.06,14.61,35.34,35.07,36.75,41.79.11.53.21,1,.3,1.33a3,3,0,0,0,5.93-.12c.08-.33.16-.72.25-1.18,1.4-6.72,5.65-27.18,36.77-41.82a3,3,0,0,0-.21-5.52c-30.72-11.7-36.15-39.12-36.79-43.12a1.1,1.1,0,0,0,0-.18,3.39,3.39,0,0,0-.26-1,3,3,0,0,0-2.73-1.76Z"/></g></g></g></svg>